<svg xmlns="http://www.w3.org/2000/svg" xmlns:xlink="http://www.w3.org/1999/xlink" width="500" zoomAndPan="magnify" viewBox="0 0 375 185.249993" height="247" preserveAspectRatio="xMidYMid meet" version="1.0"><defs><g/><clipPath id="b894ae3996"><path d="M 3.113281 0 L 128.601562 0 L 128.601562 184.503906 L 3.113281 184.503906 Z M 3.113281 0 " clip-rule="nonzero"/></clipPath><clipPath id="517fb88e34"><path d="M 0.113281 22 L 125.230469 22 L 125.230469 184 L 0.113281 184 Z M 0.113281 22 " clip-rule="nonzero"/></clipPath><clipPath id="a3dbad4523"><rect x="0" width="126" y="0" height="185"/></clipPath><clipPath id="836e914002"><rect x="0" width="225" y="0" height="61"/></clipPath><clipPath id="b48cc7ec32"><rect x="0" width="151" y="0" height="29"/></clipPath></defs><g clip-path="url(#b894ae3996)"><g transform="matrix(1, 0, 0, 1, 3, 0)"><g clip-path="url(#a3dbad4523)"><path fill="#febf00" d="M 116.605469 105.039062 C 114.433594 124.53125 97.84375 139.679688 77.675781 139.679688 C 60.511719 139.679688 45.925781 128.679688 40.640625 113.371094 C 50.488281 116.535156 63.648438 116.867188 76.808594 108.300781 C 92.121094 98.324219 107.589844 101.542969 116.605469 105.039062 Z M 93.480469 127.324219 C 91.703125 127.324219 90.265625 128.757812 90.265625 130.523438 C 90.265625 132.273438 91.707031 133.707031 93.480469 133.707031 C 95.234375 133.707031 96.675781 132.273438 96.675781 130.523438 C 96.675781 128.753906 95.238281 127.324219 93.480469 127.324219 Z M 77.675781 120.953125 C 75.503906 120.953125 73.75 122.703125 73.75 124.882812 C 73.75 127.042969 75.503906 128.792969 77.675781 128.792969 C 79.847656 128.792969 81.621094 127.042969 81.621094 124.882812 C 81.625 122.707031 79.847656 120.953125 77.675781 120.953125 Z M 86.753906 107.105469 C 83.734375 107.105469 81.308594 109.542969 81.308594 112.527344 C 81.308594 115.53125 83.734375 117.949219 86.753906 117.949219 C 89.753906 117.949219 92.199219 115.53125 92.199219 112.527344 C 92.199219 109.542969 89.753906 107.105469 86.753906 107.105469 Z M 86.753906 107.105469 " fill-opacity="1" fill-rule="evenodd"/><path fill="#f78d1f" d="M 40.640625 113.371094 C 40.640625 113.371094 58.398438 93.113281 78.839844 107.046875 C 78.171875 107.4375 77.480469 107.847656 76.808594 108.304688 C 63.648438 116.867188 50.488281 116.535156 40.640625 113.371094 Z M 63.550781 105.433594 C 62.148438 105.433594 61.023438 106.554688 61.023438 107.949219 C 61.023438 109.324219 62.148438 110.445312 63.550781 110.445312 C 64.933594 110.445312 66.054688 109.324219 66.054688 107.949219 C 66.054688 106.554688 64.933594 105.433594 63.550781 105.433594 Z M 63.550781 105.433594 " fill-opacity="1" fill-rule="evenodd"/><g clip-path="url(#517fb88e34)"><path fill="#013968" d="M 61.519531 56.136719 C 43.226562 62.71875 30.144531 80.183594 30.144531 100.679688 C 30.144531 113.234375 35.039062 124.628906 43.03125 133.097656 L 39.179688 137.148438 L 45.65625 143.277344 L 49.738281 138.992188 C 57.589844 144.671875 67.238281 148.03125 77.679688 148.03125 C 103.941406 148.03125 125.230469 126.832031 125.230469 100.679688 C 125.230469 80.1875 112.144531 62.71875 93.855469 56.136719 L 93.855469 32.992188 L 101.75 32.992188 C 104.652344 32.992188 107.035156 30.632812 107.035156 27.726562 C 107.035156 24.835938 104.648438 22.460938 101.75 22.460938 L 80.417969 22.460938 C 80.554688 23.089844 80.617188 23.738281 80.617188 24.390625 C 80.617188 29.851562 76.179688 34.292969 70.695312 34.292969 C 65.191406 34.292969 60.746094 29.851562 60.746094 24.390625 C 60.746094 23.738281 60.804688 23.09375 60.945312 22.460938 L 53.625 22.460938 C 50.722656 22.460938 48.339844 24.839844 48.339844 27.726562 C 48.339844 30.632812 50.726562 32.992188 53.625 32.992188 L 61.519531 32.992188 Z M 37.34375 139.070312 L 35.097656 141.429688 L 41.570312 147.558594 L 43.820312 145.203125 Z M 29.726562 140.03125 C 28.050781 139.914062 26.332031 140.503906 25.089844 141.820312 L 10.707031 156.890625 L 27.339844 172.609375 L 41.726562 157.539062 C 42.96875 156.222656 43.480469 154.492188 43.261719 152.824219 Z M 8.875 158.816406 L 6.625 161.195312 L 23.257812 176.894531 L 25.507812 174.535156 Z M 4.789062 163.121094 L 1.945312 166.085938 C -0.261719 168.40625 -0.167969 172.097656 2.164062 174.296875 L 10.332031 182.019531 C 12.664062 184.21875 16.371094 184.121094 18.582031 181.800781 L 21.421875 178.8125 Z M 77.675781 60.363281 C 55.042969 60.363281 36.675781 78.652344 36.675781 101.207031 C 36.675781 123.761719 55.042969 142.039062 77.675781 142.039062 C 100.328125 142.039062 118.695312 123.761719 118.695312 101.207031 C 118.695312 78.652344 100.328125 60.363281 77.675781 60.363281 Z M 77.675781 60.363281 " fill-opacity="1" fill-rule="evenodd"/></g><path fill="#ffa100" d="M 116.605469 105.039062 C 114.433594 124.53125 97.84375 139.679688 77.675781 139.679688 C 60.511719 139.679688 45.925781 128.679688 40.640625 113.371094 C 76.058594 149.050781 98.75 118.574219 107.414062 102.40625 C 110.902344 103.058594 114.023438 104.039062 116.605469 105.039062 Z M 93.480469 127.324219 C 91.703125 127.324219 90.265625 128.757812 90.265625 130.523438 C 90.265625 132.273438 91.707031 133.707031 93.480469 133.707031 C 95.234375 133.707031 96.675781 132.273438 96.675781 130.523438 C 96.675781 128.753906 95.238281 127.324219 93.480469 127.324219 Z M 93.480469 127.324219 " fill-opacity="1" fill-rule="evenodd"/><path fill="#febf00" d="M 70.691406 17.84375 C 67.039062 17.84375 64.097656 20.769531 64.097656 24.386719 C 64.097656 28 67.035156 30.949219 70.691406 30.949219 C 74.320312 30.949219 77.261719 28 77.261719 24.386719 C 77.261719 20.769531 74.320312 17.84375 70.691406 17.84375 Z M 70.691406 17.84375 " fill-opacity="1" fill-rule="evenodd"/><path fill="#febf00" d="M 80.101562 6.976562 C 77.300781 6.976562 75.011719 9.238281 75.011719 12.027344 C 75.011719 14.835938 77.300781 17.097656 80.101562 17.097656 C 82.902344 17.097656 85.175781 14.835938 85.175781 12.027344 C 85.175781 9.238281 82.902344 6.976562 80.101562 6.976562 Z M 80.101562 6.976562 " fill-opacity="1" fill-rule="evenodd"/><path fill="#febf00" d="M 70.375 0.0625 C 68.363281 0.0625 66.746094 1.671875 66.746094 3.679688 C 66.746094 5.683594 68.363281 7.292969 70.375 7.292969 C 72.390625 7.292969 74.007812 5.683594 74.007812 3.679688 C 74.007812 1.671875 72.390625 0.0625 70.375 0.0625 Z M 70.375 0.0625 " fill-opacity="1" fill-rule="evenodd"/><path fill="#013968" d="M 78.308594 101.207031 L 79.84375 101.207031 C 91.226562 95.824219 103.742188 95.667969 115.8125 99.738281 C 116.484375 90.441406 110.566406 78.4375 101.035156 88.359375 C 101.371094 88.949219 101.570312 89.621094 101.570312 90.347656 C 101.570312 92.527344 99.792969 94.273438 97.601562 94.273438 C 95.414062 94.273438 93.65625 92.527344 93.65625 90.347656 C 93.65625 88.164062 95.414062 86.394531 97.601562 86.394531 C 97.859375 86.394531 98.097656 86.4375 98.3125 86.472656 C 100.285156 84.253906 102.8125 83.054688 105.082031 82.425781 C 104.371094 71.890625 92.710938 66.902344 85.015625 70.910156 C 85.09375 73.601562 84.640625 76.960938 83.042969 80.96875 C 83.675781 81.65625 84.070312 82.601562 84.070312 83.625 C 84.070312 85.785156 82.3125 87.550781 80.125 87.550781 C 77.933594 87.550781 76.15625 85.78125 76.15625 83.625 C 76.15625 81.484375 77.894531 79.734375 80.023438 79.675781 C 87.917969 59.910156 64.613281 65.175781 61.792969 71.421875 C 63.550781 72.425781 65.445312 73.976562 66.84375 76.316406 C 68.898438 76.472656 70.496094 78.179688 70.496094 80.242188 C 70.496094 82.425781 68.71875 84.171875 66.550781 84.171875 C 64.359375 84.171875 62.582031 82.425781 62.582031 80.242188 C 62.582031 79.183594 63.019531 78.199219 63.707031 77.492188 C 57.234375 68.042969 44.960938 77.417969 46.027344 87.160156 C 48.476562 87.433594 52.28125 88.0625 55.28125 89.5 C 55.96875 88.871094 56.898438 88.496094 57.90625 88.496094 C 60.09375 88.496094 61.851562 90.265625 61.851562 92.421875 C 61.851562 94.605469 60.09375 96.375 57.90625 96.375 C 55.734375 96.375 53.980469 94.644531 53.960938 92.484375 C 41.648438 86.371094 38.804688 96.53125 41.058594 106.472656 C 43.878906 104.152344 47.132812 102.070312 50.074219 100.675781 C 59.625 96.160156 69.347656 96.355469 78.308594 101.207031 Z M 59.640625 92.425781 C 59.640625 91.484375 58.871094 90.71875 57.90625 90.71875 C 56.9375 90.71875 56.167969 91.484375 56.167969 92.425781 C 56.167969 93.390625 56.9375 94.15625 57.90625 94.15625 C 58.871094 94.15625 59.640625 93.390625 59.640625 92.425781 Z M 68.28125 80.246094 C 68.28125 79.285156 67.492188 78.519531 66.546875 78.519531 C 65.582031 78.519531 64.808594 79.285156 64.808594 80.246094 C 64.808594 81.207031 65.582031 81.976562 66.546875 81.976562 C 67.492188 81.976562 68.28125 81.207031 68.28125 80.246094 Z M 81.859375 83.625 C 81.859375 82.664062 81.070312 81.894531 80.125 81.894531 C 79.160156 81.894531 78.386719 82.664062 78.386719 83.625 C 78.386719 84.566406 79.160156 85.351562 80.125 85.351562 C 81.070312 85.351562 81.859375 84.566406 81.859375 83.625 Z M 99.34375 90.347656 C 99.34375 89.382812 98.570312 88.617188 97.605469 88.617188 C 96.660156 88.617188 95.871094 89.382812 95.871094 90.347656 C 95.871094 91.289062 96.660156 92.074219 97.605469 92.074219 C 98.570312 92.074219 99.34375 91.289062 99.34375 90.347656 Z M 99.34375 90.347656 " fill-opacity="1" fill-rule="evenodd"/></g></g></g><g transform="matrix(1, 0, 0, 1, 146, 48)"><g clip-path="url(#836e914002)"><g fill="#013968" fill-opacity="1"><g transform="translate(0.545106, 45.726097)"><g><path d="M 16.21875 -18.234375 C 11.488281 -18.867188 7.972656 -20.128906 5.671875 -22.015625 C 3.378906 -23.898438 2.234375 -26.820312 2.234375 -30.78125 L 2.234375 -31.390625 C 2.234375 -35.347656 3.554688 -38.5 6.203125 -40.84375 C 8.859375 -43.195312 12.664062 -44.375 17.625 -44.375 C 23 -44.375 26.914062 -43.148438 29.375 -40.703125 C 31.832031 -38.265625 33.0625 -34.488281 33.0625 -29.375 L 33.0625 -28.203125 L 24 -28.203125 C 24 -31.078125 23.523438 -33.179688 22.578125 -34.515625 C 21.628906 -35.859375 20 -36.53125 17.6875 -36.53125 L 17.171875 -36.53125 C 15.347656 -36.53125 13.929688 -36.082031 12.921875 -35.1875 C 11.921875 -34.300781 11.421875 -33.144531 11.421875 -31.71875 L 11.421875 -31.453125 C 11.421875 -30.398438 11.613281 -29.5 12 -28.75 C 12.394531 -28.007812 13.140625 -27.394531 14.234375 -26.90625 C 15.335938 -26.425781 16.953125 -26.035156 19.078125 -25.734375 C 23.847656 -25.097656 27.425781 -23.847656 29.8125 -21.984375 C 32.207031 -20.117188 33.40625 -17.15625 33.40625 -13.09375 L 33.40625 -12.53125 C 33.40625 -8.351562 32.050781 -5.097656 29.34375 -2.765625 C 26.644531 -0.429688 22.738281 0.734375 17.625 0.734375 C 12.476562 0.734375 8.570312 -0.46875 5.90625 -2.875 C 3.238281 -5.28125 1.90625 -9.113281 1.90625 -14.375 L 1.90625 -14.890625 L 10.96875 -14.890625 C 10.96875 -12.160156 11.515625 -10.179688 12.609375 -8.953125 C 13.710938 -7.722656 15.3125 -7.109375 17.40625 -7.109375 L 17.90625 -7.109375 C 19.988281 -7.109375 21.550781 -7.601562 22.59375 -8.59375 C 23.644531 -9.582031 24.171875 -10.800781 24.171875 -12.25 L 24.171875 -12.53125 C 24.171875 -13.570312 23.945312 -14.46875 23.5 -15.21875 C 23.050781 -15.96875 22.257812 -16.59375 21.125 -17.09375 C 19.988281 -17.59375 18.351562 -17.972656 16.21875 -18.234375 Z M 16.21875 -18.234375 "/></g></g></g><g fill="#013968" fill-opacity="1"><g transform="translate(35.845297, 45.726097)"><g><path d="M 10.515625 -13.828125 C 10.515625 -11.660156 10.878906 -9.957031 11.609375 -8.71875 C 12.335938 -7.488281 13.5625 -6.875 15.28125 -6.875 C 16.695312 -6.875 17.757812 -7.265625 18.46875 -8.046875 C 19.175781 -8.835938 19.53125 -9.8125 19.53125 -10.96875 L 27.859375 -10.96875 L 27.859375 -9.734375 C 27.859375 -6.671875 26.796875 -4.160156 24.671875 -2.203125 C 22.546875 -0.242188 19.359375 0.734375 15.109375 0.734375 C 12.015625 0.734375 9.46875 0.117188 7.46875 -1.109375 C 5.46875 -2.347656 4 -4.066406 3.0625 -6.265625 C 2.132812 -8.460938 1.671875 -10.984375 1.671875 -13.828125 L 1.671875 -15.828125 C 1.671875 -18.703125 2.132812 -21.226562 3.0625 -23.40625 C 4 -25.59375 5.46875 -27.300781 7.46875 -28.53125 C 9.46875 -29.757812 12.015625 -30.375 15.109375 -30.375 C 19.359375 -30.375 22.546875 -29.367188 24.671875 -27.359375 C 26.796875 -25.347656 27.859375 -22.703125 27.859375 -19.421875 L 27.859375 -18.125 L 19.53125 -18.125 C 19.53125 -21.21875 18.113281 -22.765625 15.28125 -22.765625 C 13.5625 -22.765625 12.335938 -22.160156 11.609375 -20.953125 C 10.878906 -19.742188 10.515625 -18.035156 10.515625 -15.828125 Z M 10.515625 -13.828125 "/></g></g></g><g fill="#013968" fill-opacity="1"><g transform="translate(65.327381, 45.726097)"><g><path d="M 3.015625 0 L 3.015625 -29.65625 L 11.859375 -29.65625 L 11.859375 0 Z M 12.078125 -43.203125 L 12.078125 -33.859375 L 2.796875 -33.859375 L 2.796875 -43.203125 Z M 12.078125 -43.203125 "/></g></g></g><g fill="#013968" fill-opacity="1"><g transform="translate(80.208281, 45.726097)"><g><path d="M 32.515625 0.109375 L 26.1875 -33.296875 L 19.859375 0.109375 L 8.28125 0.109375 L 1.0625 -43.640625 L 10.515625 -43.640625 L 14.71875 -12.25 L 20.59375 -43.640625 L 31.84375 -43.640625 L 37.71875 -12.25 L 41.90625 -43.640625 L 51.359375 -43.640625 L 44.140625 0.109375 Z M 32.515625 0.109375 "/></g></g></g><g fill="#013968" fill-opacity="1"><g transform="translate(132.627092, 45.726097)"><g><path d="M 18.90625 -30.375 C 19.0625 -30.375 19.210938 -30.375 19.359375 -30.375 C 19.503906 -30.375 19.632812 -30.359375 19.75 -30.328125 L 19.75 -21.828125 L 18.234375 -21.828125 C 16.453125 -21.828125 15.046875 -21.535156 14.015625 -20.953125 C 12.992188 -20.378906 12.273438 -19.8125 11.859375 -19.25 L 11.859375 0 L 3.015625 0 L 3.015625 -21.265625 L 2.515625 -29.65625 L 10.40625 -29.65625 L 11.015625 -26.1875 C 11.878906 -27.414062 12.984375 -28.421875 14.328125 -29.203125 C 15.671875 -29.984375 17.195312 -30.375 18.90625 -30.375 Z M 18.90625 -30.375 "/></g></g></g><g fill="#013968" fill-opacity="1"><g transform="translate(154.165244, 45.726097)"><g><path d="M 3.015625 0 L 3.015625 -29.65625 L 11.859375 -29.65625 L 11.859375 0 Z M 12.078125 -43.203125 L 12.078125 -33.859375 L 2.796875 -33.859375 L 2.796875 -43.203125 Z M 12.078125 -43.203125 "/></g></g></g><g fill="#013968" fill-opacity="1"><g transform="translate(169.046143, 45.726097)"><g><path d="M 14.4375 -29.65625 L 22.046875 -29.65625 L 22.046875 -21.9375 L 14.4375 -21.9375 L 14.4375 -11.25 C 14.4375 -9.414062 14.828125 -8.226562 15.609375 -7.6875 C 16.390625 -7.144531 17.453125 -6.875 18.796875 -6.875 C 19.285156 -6.875 19.816406 -6.921875 20.390625 -7.015625 C 20.972656 -7.109375 21.335938 -7.195312 21.484375 -7.28125 L 21.484375 0 C 21.222656 0.144531 20.703125 0.300781 19.921875 0.46875 C 19.140625 0.644531 18.078125 0.734375 16.734375 0.734375 C 14.492188 0.734375 12.539062 0.378906 10.875 -0.328125 C 9.21875 -1.046875 7.921875 -2.203125 6.984375 -3.796875 C 6.054688 -5.398438 5.59375 -7.566406 5.59375 -10.296875 L 5.59375 -21.9375 L 1.0625 -21.9375 L 1.0625 -29.65625 L 5.59375 -29.65625 L 5.59375 -38.046875 L 14.4375 -38.046875 Z M 14.4375 -29.65625 "/></g></g></g><g fill="#013968" fill-opacity="1"><g transform="translate(193.157676, 45.726097)"><g><path d="M 29.4375 -11.640625 L 10.515625 -11.640625 C 10.703125 -9.585938 11.269531 -8.128906 12.21875 -7.265625 C 13.175781 -6.410156 14.472656 -5.984375 16.109375 -5.984375 C 17.640625 -5.984375 18.851562 -6.347656 19.75 -7.078125 C 20.644531 -7.804688 21.09375 -8.617188 21.09375 -9.515625 L 29.4375 -9.515625 L 29.4375 -9.28125 C 29.4375 -7.414062 28.910156 -5.71875 27.859375 -4.1875 C 26.816406 -2.664062 25.304688 -1.460938 23.328125 -0.578125 C 21.347656 0.296875 18.925781 0.734375 16.0625 0.734375 C 12.78125 0.734375 10.070312 0.0976562 7.9375 -1.171875 C 5.8125 -2.441406 4.234375 -4.195312 3.203125 -6.4375 C 2.179688 -8.675781 1.671875 -11.210938 1.671875 -14.046875 L 1.671875 -15.609375 C 1.671875 -18.484375 2.191406 -21.03125 3.234375 -23.25 C 4.285156 -25.46875 5.851562 -27.207031 7.9375 -28.46875 C 10.03125 -29.738281 12.625 -30.375 15.71875 -30.375 C 18.851562 -30.375 21.4375 -29.738281 23.46875 -28.46875 C 25.5 -27.207031 27 -25.46875 27.96875 -23.25 C 28.945312 -21.03125 29.4375 -18.484375 29.4375 -15.609375 Z M 15.5625 -23.671875 C 12.5 -23.671875 10.835938 -21.785156 10.578125 -18.015625 L 20.53125 -18.015625 C 20.269531 -21.785156 18.613281 -23.671875 15.5625 -23.671875 Z M 15.5625 -23.671875 "/></g></g></g></g></g><g transform="matrix(1, 0, 0, 1, 151, 110)"><g clip-path="url(#b48cc7ec32)"><g fill="#f78d1f" fill-opacity="1"><g transform="translate(1.03319, 20.794467)"><g><path d="M 15.28125 -19.015625 L 15.28125 0 L 11.109375 0 L 4.96875 -11.796875 L 5.09375 -7.96875 L 5.09375 0 L 1.359375 0 L 1.359375 -19.015625 L 5.53125 -19.015625 L 11.65625 -7.21875 L 11.53125 -11.046875 L 11.53125 -19.015625 Z M 15.28125 -19.015625 "/></g></g></g><g fill="#f78d1f" fill-opacity="1"><g transform="translate(31.782721, 20.794467)"><g><path d="M 1.359375 -19.015625 L 12.984375 -19.015625 L 12.984375 -15.59375 L 5.3125 -15.59375 L 5.3125 -11.40625 L 11.765625 -11.40625 L 11.765625 -8 L 5.3125 -8 L 5.3125 -3.40625 L 12.984375 -3.40625 L 12.984375 0 L 1.359375 0 Z M 1.359375 -19.015625 "/></g></g></g><g fill="#f78d1f" fill-opacity="1"><g transform="translate(59.853742, 20.794467)"><g><path d="M 0.46875 0 L 5.09375 -9.96875 L 0.46875 -19.015625 L 5.046875 -19.015625 L 7.890625 -12.703125 L 10.78125 -19.015625 L 15.359375 -19.015625 L 10.71875 -9.96875 L 15.359375 0 L 10.96875 0 L 7.890625 -7.09375 L 4.828125 0 Z M 0.46875 0 "/></g></g></g><g fill="#f78d1f" fill-opacity="1"><g transform="translate(89.775382, 20.794467)"><g><path d="M 8.0625 0.3125 C 6.34375 0.3125 4.988281 0.0703125 4 -0.40625 C 3.007812 -0.882812 2.300781 -1.59375 1.875 -2.53125 C 1.457031 -3.476562 1.25 -4.640625 1.25 -6.015625 L 1.25 -19.015625 L 5.1875 -19.015625 L 5.1875 -6.140625 C 5.1875 -5.128906 5.382812 -4.367188 5.78125 -3.859375 C 6.1875 -3.347656 6.945312 -3.09375 8.0625 -3.09375 C 9.1875 -3.09375 9.953125 -3.347656 10.359375 -3.859375 C 10.765625 -4.367188 10.96875 -5.128906 10.96875 -6.140625 L 10.96875 -19.015625 L 14.921875 -19.015625 L 14.921875 -6.015625 C 14.921875 -4.640625 14.707031 -3.476562 14.28125 -2.53125 C 13.863281 -1.59375 13.15625 -0.882812 12.15625 -0.40625 C 11.15625 0.0703125 9.789062 0.3125 8.0625 0.3125 Z M 8.0625 0.3125 "/></g></g></g><g fill="#f78d1f" fill-opacity="1"><g transform="translate(120.03793, 20.794467)"><g><path d="M 7.0625 -7.953125 C 5 -8.222656 3.46875 -8.769531 2.46875 -9.59375 C 1.46875 -10.414062 0.96875 -11.6875 0.96875 -13.40625 L 0.96875 -13.671875 C 0.96875 -15.398438 1.546875 -16.773438 2.703125 -17.796875 C 3.859375 -18.816406 5.515625 -19.328125 7.671875 -19.328125 C 10.015625 -19.328125 11.722656 -18.796875 12.796875 -17.734375 C 13.867188 -16.671875 14.40625 -15.023438 14.40625 -12.796875 L 14.40625 -12.28125 L 10.453125 -12.28125 C 10.453125 -13.53125 10.242188 -14.445312 9.828125 -15.03125 C 9.421875 -15.625 8.710938 -15.921875 7.703125 -15.921875 L 7.484375 -15.921875 C 6.679688 -15.921875 6.0625 -15.722656 5.625 -15.328125 C 5.1875 -14.941406 4.96875 -14.441406 4.96875 -13.828125 L 4.96875 -13.703125 C 4.96875 -13.242188 5.050781 -12.851562 5.21875 -12.53125 C 5.394531 -12.207031 5.722656 -11.9375 6.203125 -11.71875 C 6.679688 -11.507812 7.382812 -11.34375 8.3125 -11.21875 C 10.394531 -10.9375 11.953125 -10.390625 12.984375 -9.578125 C 14.023438 -8.765625 14.546875 -7.472656 14.546875 -5.703125 L 14.546875 -5.453125 C 14.546875 -3.640625 13.957031 -2.222656 12.78125 -1.203125 C 11.601562 -0.191406 9.898438 0.3125 7.671875 0.3125 C 5.429688 0.3125 3.726562 -0.207031 2.5625 -1.25 C 1.40625 -2.300781 0.828125 -3.972656 0.828125 -6.265625 L 0.828125 -6.484375 L 4.78125 -6.484375 C 4.78125 -5.296875 5.019531 -4.429688 5.5 -3.890625 C 5.976562 -3.359375 6.671875 -3.09375 7.578125 -3.09375 L 7.796875 -3.09375 C 8.710938 -3.09375 9.394531 -3.304688 9.84375 -3.734375 C 10.300781 -4.171875 10.53125 -4.707031 10.53125 -5.34375 L 10.53125 -5.453125 C 10.53125 -5.910156 10.429688 -6.300781 10.234375 -6.625 C 10.035156 -6.957031 9.6875 -7.234375 9.1875 -7.453125 C 8.695312 -7.671875 7.988281 -7.835938 7.0625 -7.953125 Z M 7.0625 -7.953125 "/></g></g></g></g></g></svg>